# xmcd
#
# Track frame offsets:
# 150
# 11132
# 23849
# 31245
# 51628
# 61956
# 71253
# 81281
# 96673
# 106707
# 118337
# 126419
#
# Disc length: 1864 seconds
#
#
# Revision: 0
# Processed by: cddbd v1.5.2PL0 Copyright (c) Steve Scherf et al.
# Submitted via: FreeRIP 2.945 
#
DISCID=a907460c
DTITLE=The Blind Boys of Alabama - God Will Bless You
DYEAR=1900
DGENRE=Gospel
TTITLE0=Mothers Prayer
TTITLE1=Something Got A Hold On Me
TTITLE2=God Will Bless You
TTITLE3=Father, I Strech My Hands To Thee
TTITLE4=Even Me
TTITLE5=What He's Done for Me
TTITLE6=Jesus Rose With All The Power In His Hands
TTITLE7=Lord I Tried
TTITLE8=It's Finished
TTITLE9=Let Me Hear My Mother Prayer
TTITLE10=Working On The Building
TTITLE11=Send It On Down
EXTD=
EXTT0=
EXTT1=
EXTT2=
EXTT3=
EXTT4=
EXTT5=
EXTT6=
EXTT7=
EXTT8=
EXTT9=
EXTT10=
EXTT11=
PLAYORDER=
